<svg xmlns="http://www.w3.org/2000/svg" width="100" height="100" viewBox="0 0 50 50" style="fill: rgb(255, 255, 255);">
    <path d="M42.726,0.057c-0.265-0.093-0.54-0.068-0.773,0.046C41.818,0.038,41.67,0,41.516,0H24.313c-0.04,0-0.077,0.017-0.116,0.021 c-0.282-0.039-0.575,0.03-0.802,0.236c-2.408,2.171-5.838,7.715-6.793,11.775c-2.012,2.279-2.11,4.773-0.313,7.827 c0.616,1.043,0.745,2.264,0.895,3.677c0.085,0.799,0.172,1.625,0.357,2.493c0.286,1.321,0.879,2.636,1.453,3.906 c0.318,0.705,0.619,1.37,0.86,2.019c0.292,0.782,0.62,1.604,0.951,2.438c0.796,2.001,1.789,4.499,2.143,6.279 c0.085,1.086-0.009,2-0.367,2.636c-1.226,2.183-2.939,1.795-4.989,2.666c-2.151,0.922-3.505,1.321-4.317,1.471 c-2.072,0.387-1.865,0.572-1.865,0.935c0,0.112,0.014,0.22,0.037,0.324c0.168,0.764,0.921,1.301,1.769,1.301 c0.157,0,0.318-0.017,0.479-0.04c0.395-0.059,0.786-0.18,1.085-0.352c0.093,0.063,0.19,0.104,0.286,0.149 c0.493,0.235,1.028,0.271,1.618,0.271c2.011,0,3.291-0.064,4.207-0.149c1.513-0.14,2.021-0.332,3.072-0.38 c0.156-0.007,0.319-0.012,0.504-0.012c0.902,0,2.738,0.541,4.84,0.541c0.565,0,1.022-0.114,1.397-0.297 c1.022-0.498,1.399-1.543,1.399-2.483c0-1.566-1.064-2.544-2.04-5.118c-0.442-1.33-0.91-3.038-1.253-5.42 c-0.049-0.341-0.076-0.667-0.105-0.994c-0.018-0.202-0.034-0.403-0.047-0.601c-0.166-2.995,0.449-5.395,0.963-7.374 c0.43-1.652,0.801-3.08,0.594-4.396c-0.474-3.016-1.782-4.864-2.564-5.967c-0.146-0.207-0.32-0.452-0.412-0.608 c0.223-0.486,1.042-1.533,2.391-2.169c2.149-1.016,11.345-6.571,13.709-13.271C43.52,0.812,43.246,0.241,42.726,0.057z"/>
</svg>