<svg xmlns="http://www.w3.org/2000/svg" viewBox="0 0 50 50" width="100" height="100" style="fill: rgb(255, 255, 255);">
    <path style="line-height:normal;text-indent:0;text-align:start;text-decoration-line:none;text-decoration-style:solid;text-decoration-color:#000;text-transform:none;block-progression:tb;isolation:auto;mix-blend-mode:normal" d="M 11 8 A 5 5 0 0 0 6 13 A 5 5 0 0 0 11 18 A 5 5 0 0 0 16 13 A 5 5 0 0 0 11 8 z M 30.5 13 A 2.5 2.5 0 0 0 29.304688 13.306641 L 29.298828 13.294922 L 21.533203 16.914062 L 10.943359 20.142578 A 4 4 0 0 0 10.929688 20.146484 L 10.888672 20.160156 A 4 4 0 0 0 8 24 A 4 4 0 0 0 8.875 26.494141 L 8.8730469 26.498047 L 19.15625 39.203125 L 19.167969 39.203125 A 5 5 0 0 0 23 41 A 5 5 0 0 0 26.568359 39.496094 L 34.400391 32 L 43.40625 26.830078 A 2.5 2.5 0 0 0 45 24.5 A 2.5 2.5 0 0 0 42.5 22 A 2.5 2.5 0 0 0 41.267578 22.328125 L 41.261719 22.318359 L 32.001953 26.486328 L 25.357422 31.501953 L 18.675781 23.193359 L 22.84375 21.765625 L 31.365234 17.84375 A 2.5 2.5 0 0 0 33 15.5 A 2.5 2.5 0 0 0 30.5 13 z M 23 41 L 3 41 A 1.0001 1.0001 0 1 0 3 43 L 47 43 A 1.0001 1.0001 0 1 0 47 41 L 23 41 z" color="#000" font-weight="400" font-family="sans-serif" white-space="normal" overflow="visible"/>
</svg>