<svg xmlns="http://www.w3.org/2000/svg" width="100" height="100" viewBox="0 0 50 50" style="fill: rgb(255, 255, 255);">
    <path d="M 28.75 0.0625 C 28.57025 0.076703125 28.389 0.121 28.21875 0.21875 C 27.53775 0.60975 27.44925 1.2325 27.78125 2.0625 C 28.02925 2.5855 31.625 9.43125 31.625 10.40625 C 31.625 11.29325 29.10925 16.28925 28.40625 16.78125 C 27.97525 17.08225 26.573 17 25 17 C 23.427 17 21.71 17.05675 21.375 16.71875 C 20.495 15.83875 18.80075 12.81175 18.09375 11.71875 C 17.67875 11.07775 17.65825 10.66475 17.90625 10.09375 C 18.28325 9.22575 22.288 2.97975 22.5 2.46875 C 23.112 1.36575 22.68925 0.6345 22.03125 0.3125 C 21.16525 -0.1115 20.44875 0.2425 19.46875 1.5625 C 18.80675 2.4535 14.24675 9.12525 13.84375 10.15625 C 13.50375 11.02425 14.14075 11.97675 14.59375 12.84375 C 16.26075 16.04175 19.59375 20.3125 19.59375 20.3125 L 19.59375 29.65625 C 19.59375 31.78125 19.96875 36.75325 19.96875 38.78125 C 19.96875 39.83625 20.963 45.924 21.375 47.625 C 21.872 49.682 22.82575 50 23.46875 50 C 24.38675 50 24.8505 49.1025 24.8125 47.1875 C 24.7505 44.0625 24.0685 39.1165 24.0625 38.1875 C 24.0525 36.6905 25 31.0625 25 31.0625 C 25 31.0625 28.89875 32.72525 30.59375 33.53125 C 31.21875 33.82825 31.3285 34.033 30.8125 34.5 C 30.1245 35.125 27.3745 37.75 26.5625 38.625 C 26.0435 39.183 25.9205 40.351 26.1875 40.75 C 26.4995 41.218 27.363 41.3545 28.875 40.5625 C 30.188 39.8745 34.03375 36.84375 36.09375 35.21875 C 36.63375 34.79275 37.5375 33.6525 36.4375 32.4375 C 33.7325 29.4515 30.28125 27.40625 30.28125 27.40625 C 30.28125 24.11425 30.375 21.97275 30.375 20.59375 C 30.375 20.59375 33.01625 16.48875 34.53125 13.21875 C 35.24825 11.67175 35.54775 10.81225 35.09375 9.90625 C 34.41875 8.55925 31.00975 2.20975 30.46875 1.34375 C 29.8845 0.37175 29.28925 0.019890625 28.75 0.0625 z M 25 8 C 22.790861 8 21 9.790861 21 12 C 21 14.209139 22.790861 16 25 16 C 27.209139 16 29 14.209139 29 12 C 29 9.790861 27.209139 8 25 8 z"/>
</svg>