<svg xmlns="http://www.w3.org/2000/svg" width="100" height="100" viewBox="0 0 50 50">
    <path d="M 21.90625 7 C 11.98125 7 3.90625 15.075 3.90625 25 C 3.90625 34.925 11.98125 43 21.90625 43 C 31.83125 43 39.90625 34.925 39.90625 25 C 39.90625 15.075 31.83125 7 21.90625 7 z M 30.75 7.09375 C 37.34 10.36875 41.90625 17.156 41.90625 25 C 41.90625 32.845 37.34 39.63225 30.75 42.90625 C 39.805 41.97325 46.90625 34.297 46.90625 25 C 46.90625 15.703 39.804 8.02775 30.75 7.09375 z M 21.5 16.5 L 23 16.5 L 23 33.5 L 21 33.5 L 21 21.3125 L 16.59375 21.3125 L 16.59375 19.6875 C 17.19375 19.6875 17.7125 19.69375 18.3125 19.59375 C 18.8125 19.49375 19.3125 19.29375 19.8125 19.09375 C 20.2125 18.89375 20.60625 18.49375 20.90625 18.09375 C 21.20625 17.69375 21.4 17.2 21.5 16.5 z"/>
</svg>