<svg xmlns="http://www.w3.org/2000/svg" width="100" height="100" viewBox="0 0 50 50">
    <path d="M50,27.241c0,1.822-5.335,4.363-14.024,4.363c-2.121,0-4.148-0.159-6.038-0.468c0.029-0.17,0.064-0.339,0.064-0.516v-4.966 c1.894,0.286,3.893,0.439,5.974,0.439c5.44,0,11.109-1.098,14.024-3.173V27.241z M28.002,30.621c0,1.814-5.314,4.346-13.97,4.346 s-13.97-2.531-13.97-4.346v-4.298c2.908,2.066,8.553,3.159,13.97,3.159s11.062-1.093,13.97-3.159V30.621z M0.063,33.809 c2.908,2.065,8.553,3.158,13.97,3.158s11.062-1.093,13.97-3.158v4.298c0,1.815-5.314,4.347-13.97,4.347s-13.97-2.531-13.97-4.347 V33.809z M50,12.217c0,1.823-5.335,4.365-14.024,4.365c-8.688,0-14.023-2.542-14.023-4.365v-4.32 c2.916,2.076,8.583,3.174,14.023,3.174c5.44,0,11.109-1.098,14.024-3.174V12.217z M35.976,0.339C44.665,0.339,50,2.882,50,4.705 c0,1.823-5.335,4.366-14.024,4.366c-8.688,0-14.023-2.543-14.023-4.366C21.953,2.882,27.287,0.339,35.976,0.339z M21.953,15.408 c2.916,2.076,8.583,3.173,14.023,3.173c5.44,0,11.109-1.098,14.024-3.173v4.321c0,1.823-5.335,4.365-14.024,4.365 c-2.083,0-4.146-0.169-6.034-0.474c0.026-0.16,0.061-0.317,0.061-0.483c0-2.681-3.486-4.553-8.049-5.539V15.408z M14.032,18.789 c8.655,0,13.97,2.532,13.97,4.347c0,1.815-5.314,4.346-13.97,4.346s-13.97-2.531-13.97-4.346 C0.063,21.321,5.377,18.789,14.032,18.789z M14.032,49.938c-8.655,0-13.97-2.531-13.97-4.347v-4.297 c2.908,2.066,8.553,3.159,13.97,3.159s11.062-1.093,13.97-3.159v4.297C28.002,47.406,22.688,49.938,14.032,49.938z M35.976,39.118 c-2.108,0-4.137-0.162-6.042-0.471c0.033-0.178,0.068-0.355,0.068-0.541v-4.939c1.885,0.285,3.887,0.438,5.974,0.438 c5.44,0,11.109-1.098,14.024-3.173v4.32C50,36.575,44.665,39.118,35.976,39.118z"/>
</svg>