<svg xmlns="http://www.w3.org/2000/svg" viewBox="0 0 50 50" enable-background="new 0 0 50 50" width="100" height="100">
    <path d="M 25 0 C 22 0 19.5 2.5 19.5 5.5 C 19.5 8.5 22 11 25 11 C 28 11 30.5 8.5 30.5 5.5 C 30.5 2.5 28 0 25 0 z M 25 12.09375 C 21.9 12.09375 16.9125 13.9875 16.3125 14.1875 C 15.3125 14.5875 14.39375 15.49375 14.09375 16.59375 L 11.6875 23.40625 C 11.6875 23.40625 7.9 25.79375 6.5 26.59375 C 5 27.49375 4.5 28.6875 5 29.6875 C 5.1 29.9875 5.39375 30.2125 5.59375 30.3125 C 6.49375 28.6125 8.0875 27.59375 10.1875 27.59375 C 10.9875 27.59375 11.80625 27.8 12.40625 28 C 13.30625 27.5 14.1 27.10625 14.5 26.90625 C 15.1 26.50625 15.2875 26.3875 15.6875 25.6875 C 15.8875 25.2875 16.89375 23.2125 17.59375 21.8125 L 17.59375 28.8125 L 14.90625 29.5 L 25 34.5 L 35.09375 29.40625 L 32.40625 28.8125 L 32.40625 21.8125 C 33.10625 23.2125 34.1125 25.2875 34.3125 25.6875 C 34.7125 26.3875 34.89375 26.5 35.59375 27 C 35.89375 27.2 36.6875 27.59375 37.6875 28.09375 C 38.3875 27.79375 39.20625 27.6875 39.90625 27.6875 C 41.90625 27.6875 43.6 28.70625 44.5 30.40625 C 44.8 30.30625 44.99375 30.1125 45.09375 29.8125 C 45.59375 28.9125 45.09375 27.5875 43.59375 26.6875 C 42.09375 25.8875 38.40625 23.5 38.40625 23.5 L 36 16.6875 C 35.7 15.5875 34.8125 14.7125 33.8125 14.3125 C 33.2125 14.0125 28.1 12.09375 25 12.09375 z M 39.96875 29.625 C 39.294336 29.619141 38.61875 29.79375 38.09375 30.09375 L 17.90625 40.3125 C 16.60625 40.9125 15.99375 42.5125 16.59375 43.8125 C 17.49375 45.7125 19.69375 45.29375 20.09375 45.09375 L 41.5 35.8125 C 42.9 35.2125 43.7125 33.30625 42.8125 31.40625 C 42.25 30.15625 41.092773 29.634766 39.96875 29.625 z M 10.03125 29.6875 C 8.9072266 29.712891 7.75 30.21875 7.1875 31.40625 C 6.2875 33.40625 7.1 35.3125 8.5 35.8125 L 16.09375 39.09375 C 16.39375 38.89375 16.69375 38.7 17.09375 38.5 L 22.8125 35.59375 L 11.90625 30.09375 C 11.38125 29.83125 10.705664 29.672266 10.03125 29.6875 z M 33.40625 41.5 L 27.5 44 L 29.90625 45 C 30.30625 45.2 32.50625 45.5875 33.40625 43.6875 C 33.70625 42.9875 33.70625 42.1 33.40625 41.5 z M 11.90625 48 A 1.001098 1.001098 0 0 0 12.09375 50 L 37.90625 50 A 1.0001 1.0001 0 1 0 37.90625 48 L 12.09375 48 A 1.0001 1.0001 0 0 0 12 48 A 1.001098 1.001098 0 0 0 11.90625 48 z"/>
</svg>