<svg xmlns="http://www.w3.org/2000/svg" width="100" height="100" viewBox="0 0 50 50">
    <path d="M 25 8 C 21.962434 8 19.5 10.462434 19.5 13.5 C 19.5 16.537566 21.962434 19 25 19 C 28.037566 19 30.5 16.537566 30.5 13.5 C 30.5 10.462434 28.037566 8 25 8 z M 25 20.03125 C 21.077 20.03125 16.90625 21.6875 16.90625 21.6875 L 16.90625 21.71875 C 15.56725 21.98375 14.48775 22.962 14.09375 24.25 L 14.0625 24.25 L 10.78125 32.8125 C 10.78125 32.8125 6.015 36.97625 4.875 37.90625 C 3.735 38.83725 3.81 40.4665 4.75 41.3125 C 5.69 42.1575 6.97525 41.902 8.28125 40.875 C 9.22125 40.135 13.2405 36.9865 13.8125 36.4375 C 14.3845 35.8865 14.80775 35.20825 15.09375 34.65625 C 15.29275 34.27325 17.134 30.857 18 29.25 L 18 37.59375 C 18 38.95975 14.6155 40.89675 12.6875 42.09375 C 10.2685 43.59675 8.375 44.6145 8.375 46.6875 C 8.375 49.0525 10.8795 50.0625 13.0625 50.0625 L 16.03125 50.0625 C 15.68125 49.5605 15.46875 48.93825 15.46875 48.15625 C 15.46875 44.16025 20.16375 43.356 22.96875 42.875 C 27.07475 42.171 30.0325 41.6925 30.0625 41.6875 C 30.1155 41.6795 30.196 41.6915 30.25 41.6875 C 30.27 41.6855 30.26125 41.6875 30.28125 41.6875 C 30.29025 41.6875 30.3045 41.6875 30.3125 41.6875 C 30.3345 41.6865 30.353 41.6875 30.375 41.6875 C 30.383 41.6875 30.39925 41.6845 30.40625 41.6875 C 30.90325 41.7455 31.28125 42.1735 31.28125 42.6875 C 31.28125 43.2075 30.881 43.60725 30.375 43.65625 C 30.375 43.65925 30.375 43.6875 30.375 43.6875 C 30.375 43.6875 27.4515 44.13375 23.3125 44.84375 C 20.0425 45.40475 17.46875 46.06925 17.46875 48.15625 C 17.46875 49.55725 18.85575 49.9635 20.21875 50.0625 L 22.4375 50.0625 C 22.4475 50.0625 22.45875 50.0625 22.46875 50.0625 L 34.59375 50.0625 C 36.17375 50.0625 41.625 49.99675 41.625 46.96875 C 41.625 45.08275 40.08175 44.08475 38.21875 42.84375 C 34.68175 40.48975 32 38.80825 32 37.53125 L 32 29.28125 C 32.866 30.88825 34.70725 34.27125 34.90625 34.65625 C 35.19125 35.20725 35.6155 35.8865 36.1875 36.4375 C 36.7595 36.9875 40.77975 40.135 41.71875 40.875 C 43.02575 41.901 44.309 42.1575 45.25 41.3125 C 46.192 40.4665 46.266 38.83725 45.125 37.90625 C 43.984 36.97525 39.21875 32.8125 39.21875 32.8125 L 35.9375 24.25 L 35.90625 24.25 C 35.51025 22.952 34.4145 21.9435 33.0625 21.6875 C 32.3785 21.4245 28.558 20.03125 25 20.03125 z"/>
</svg>