<svg xmlns="http://www.w3.org/2000/svg" viewBox="0 0 50 50" width="100" height="100">
    <path d="M46.453,12.352c-0.244,0.269-0.468,0.524-0.721,0.801L24.963,33.206L11.879,20.121c-1.172-1.171-1.172-3.071,0-4.242&#9;c1.171-1.172,3.071-1.172,4.242,0l8.916,8.916L41.615,8.788c-0.011-0.007,0.235-0.291,0.652-0.762l-0.392-0.272&#9;C39.778,6.59,37.617,6,35.45,6c-4.175,0-8.102,2.119-10.438,5.519C22.712,8.076,18.846,6,14.55,6C7.63,6,2,11.563,2,18.4&#9;c0,3.401,1.362,6.552,3.813,8.851L25,46.413l19.512-19.484C46.729,24.741,48,21.633,48,18.4c0-1.894-0.474-3.861-1.37-5.688&#9;L46.453,12.352z"/>
</svg>