<svg xmlns="http://www.w3.org/2000/svg" width="100" height="100" viewBox="0 0 50 50">
    <path d="M 28 1.03125 C 25.243 1.03125 23 3.27425 23 6.03125 C 23 8.78825 25.243 11.03125 28 11.03125 C 30.757 11.03125 33 8.78825 33 6.03125 C 33 3.27425 30.757 1.03125 28 1.03125 z M 24 13 C 20 13 20 15.906 20 17 C 20 20.563 21.71875 25.8125 21.71875 25.8125 C 22.01875 26.7125 22.6375 27.5 23.4375 28 L 29.03125 31.3125 C 29.33225 31.5125 29.6395 31.59375 29.9375 31.59375 C 30.5375 31.59375 31.13225 31.2865 31.53125 30.6875 C 32.03125 29.7865 31.7135 28.6875 30.8125 28.1875 L 25.21875 24.90625 L 24.09375 20.96875 C 24.02575 20.83375 23.96875 20.69325 23.96875 20.53125 C 23.96875 19.97925 24.41675 19.53125 24.96875 19.53125 C 25.43275 19.53125 25.79225 19.85325 25.90625 20.28125 C 25.90625 20.28125 25.9375 20.28225 25.9375 20.28125 L 26.875 23.53125 L 29.375 25 L 34 25 L 34 20 L 37.34375 25 L 41.65625 25 C 39.33525 21.543 34.742 14.742 34 14 C 33 13 31 13 31 13 L 24 13 z M 32.53125 27 C 33.63325 28.012 34.0485 29.561 33.5625 31 L 43 31 C 44.104 31 45 30.104 45 29 C 45 27.896 44.104 27 43 27 L 32.53125 27 z M 21.65625 29.15625 L 21.65625 32 L 24.40625 32 L 24.90625 31.1875 L 22.40625 29.71875 C 22.39125 29.70975 22.389 29.6955 22.375 29.6875 C 22.123 29.5295 21.88125 29.35025 21.65625 29.15625 z M 5 31 C 2.243 31 0 33.243 0 36 C 0 38.757 2.243 41 5 41 C 7.757 41 10 38.757 10 36 C 10 33.243 7.757 31 5 31 z M 26.625 32.21875 L 25.5 34 L 15 34 C 12.791 34 11 35.791 11 38 C 11 40.209 12.791 42 15 42 L 27 42 C 28.1 42 29 41.1 29 40 C 29 38.9 28.1 38 27 38 L 18 38 C 17.448 38 17 37.553 17 37 C 17 36.447 17.448 36 18 36 L 27 36 C 29.206 36 31 37.794 31 40 C 31 40.731 30.7825 41.409 30.4375 42 L 46.96875 42 C 48.09175 42 49 41.09075 49 39.96875 C 49 38.84675 48.09075 37.9375 46.96875 37.9375 L 31.125 36.90625 L 32.8125 32.3125 C 32.0665 33.1305 31.0295 33.59375 29.9375 33.59375 C 29.2565 33.59375 28.58675 33.399 27.96875 33 L 26.625 32.21875 z M 3 42 C 1.346 42 0 43.346 0 45 L 0 50 L 50 50 L 50 46 C 50 44.841 49.159 44 48 44 L 11.0625 44 L 10.375 43.1875 C 9.786 42.4515 8.902 42 8 42 L 3 42 z"/>
</svg>