<svg version="1.1" xmlns="http://www.w3.org/2000/svg" xmlns:xlink="http://www.w3.org/1999/xlink" x="0px" y="0px" viewBox="0 0 48 48" style="fill: rgb(255, 255, 255);" xml:space="preserve" width="96" height="96">
<path style="fill:#FFBA57;" d="M41.58,19.127C41.316,18.32,42,17.541,42,14.77C42,8.156,35.741,7,32.611,7c0,0-3.221-2-4.611-2&#10;&#9;h-8.001c-1.391,0-4.61,2-4.61,2c-3.132,0-9.39,1.156-9.39,7.77c0,2.771,0.685,3.551,0.42,4.357C6.158,19.936,5,21.164,5,26l4.999,3&#10;&#9;c2.637-2.449,1.922-5.611,2-6c0.105,2.664,0.735,4.293,1.337,5.742c1.893,4.562,0.663,7.434,0.663,8.918c0,2.238,4,5.34,4,5.34H30&#10;&#9;c0,0,4-3.102,4-5.34c0-1.484-1.229-4.356,0.663-8.918C35.264,27.293,35.894,25.664,36,23c0.078,0.389-0.638,3.551,2,6l4.999-3&#10;&#9;C42.999,21.164,41.841,19.936,41.58,19.127"/>
<path style="fill:#FF754C;" d="M25,20.807c0,5.99,3.469,15.312,5.312,15.312C32.156,36.119,36,26.594,36,23&#10;&#9;c-1.116-0.445-4.404-5.221-5-12C28.059,13.533,25,18.895,25,20.807"/>
<path style="fill:#FF754C;" d="M16.999,11c-0.596,6.781-3.884,11.555-5,12c0,3.594,3.844,13.121,5.686,13.121&#10;&#9;c1.845,0,5.314-9.322,5.314-15.316C22.999,18.895,19.939,13.535,16.999,11"/>
</svg>