<svg version="1.1" xmlns="http://www.w3.org/2000/svg" xmlns:xlink="http://www.w3.org/1999/xlink" x="0px" y="0px" width="96" height="96" viewBox="0 0 48 48" enable-background="new 0 0 48 48" xml:space="preserve" style="fill: rgb(255, 255, 255);">
<path fill="#DD8903" d="M43,24c0,10.493-8.507,19-19,19S5,34.493,5,24S13.507,5,24,5S43,13.507,43,24"/>
<g>
	<path fill="#FFAB00" d="M38.387,11.613C41.255,14.94,43,19.263,43,24c0,10.493-8.507,19-19,19c-4.737,0-9.06-1.745-12.387-4.613&#10;&#9;&#9;C15.097,42.431,20.244,45,26,45c10.493,0,19-8.507,19-19C45,20.244,42.431,15.097,38.387,11.613z"/>
	<path fill="#FFAB00" d="M41,22c0,10.493-8.507,19-19,19S3,32.493,3,22S11.507,3,22,3S41,11.507,41,22"/>
</g>
<path fill="#FFCC80" d="M22,7C13.716,7,7,13.716,7,22s6.716,15,15,15s15-6.716,15-15S30.284,7,22,7z M34.816,19.812l-1.973,0.332&#10;&#9;c-0.1-0.593-0.251-1.184-0.45-1.757l1.889-0.656C34.518,18.408,34.697,19.108,34.816,19.812z M33.411,15.768l-1.754,0.961&#10;&#9;c-0.29-0.53-0.627-1.04-1-1.516l1.572-1.234C32.671,14.539,33.068,15.142,33.411,15.768z M23.033,9.041l-0.16,1.994&#10;&#9;c-0.602-0.049-1.217-0.044-1.818,0.004l-0.166-1.991C21.596,8.987,22.327,8.984,23.033,9.041z M18.771,9.404l0.494,1.938&#10;&#9;c-0.584,0.149-1.16,0.349-1.713,0.594l-0.811-1.828C17.396,9.817,18.079,9.582,18.771,9.404z M14.86,11.136l1.099,1.67&#10;&#9;c-0.504,0.332-0.984,0.709-1.429,1.121l-1.359-1.47C13.697,11.972,14.266,11.526,14.86,11.136z M11.72,14.039l1.584,1.224&#10;&#9;c-0.374,0.483-0.708,0.996-0.993,1.525l-1.76-0.951C10.888,15.214,11.281,14.609,11.72,14.039z M9.692,17.808l1.892,0.645&#10;&#9;c-0.194,0.573-0.342,1.165-0.438,1.759l-1.975-0.32C9.286,19.187,9.461,18.486,9.692,17.808z M9,22.027l2-0.006&#10;&#9;c0.002,0.608,0.053,1.219,0.152,1.813l-1.973,0.33C9.063,23.463,9.002,22.744,9,22.027z M10.575,28.207&#10;&#9;c-0.344-0.629-0.635-1.291-0.868-1.963l1.892-0.652c0.196,0.568,0.442,1.127,0.731,1.658L10.575,28.207z M13.209,31.576&#10;&#9;C12.68,31.09,12.19,30.56,11.754,30l1.576-1.23c0.369,0.473,0.784,0.922,1.232,1.334L13.209,31.576z M16.791,33.914&#10;&#9;c-0.656-0.287-1.293-0.631-1.89-1.021l1.097-1.674c0.502,0.33,1.04,0.62,1.595,0.863L16.791,33.914z M20.943,34.957&#10;&#9;c-0.715-0.057-1.428-0.174-2.118-0.348l0.488-1.939c0.583,0.146,1.185,0.244,1.79,0.294L20.943,34.957z M21,29V18.711l-3,0.947v-2.5&#10;&#9;L23.723,15H24v14H21z M23.084,34.957l-0.166-1.993c0.604-0.051,1.207-0.151,1.793-0.3l0.49,1.939&#10;&#9;C24.51,34.778,23.797,34.897,23.084,34.957z M24.666,11.325l0.482-1.941c0.693,0.173,1.378,0.405,2.035,0.69l-0.799,1.834&#10;&#9;C25.83,11.666,25.252,11.471,24.666,11.325z M27.233,33.903l-0.809-1.83c0.556-0.245,1.093-0.536,1.597-0.866l1.096,1.672&#10;&#9;C28.522,33.27,27.889,33.614,27.233,33.903z M27.984,12.769l1.09-1.676c0.599,0.389,1.169,0.83,1.696,1.312l-1.35,1.477&#10;&#9;C28.975,13.473,28.491,13.099,27.984,12.769z M30.809,31.562l-1.355-1.471c0.447-0.412,0.86-0.861,1.23-1.337l1.578,1.229&#10;&#9;C31.825,30.544,31.336,31.075,30.809,31.562z M33.437,28.186l-1.758-0.953c0.289-0.534,0.535-1.093,0.729-1.662l1.893,0.648&#10;&#9;C34.069,26.893,33.779,27.555,33.437,28.186z M32.852,23.811C32.95,23.215,33,22.605,33,22l1.702-0.043l0.296,0.004&#10;&#9;c0.002,0.754-0.057,1.473-0.174,2.176L32.852,23.811z"/>
</svg>