<svg version="1.1" xmlns="http://www.w3.org/2000/svg" xmlns:xlink="http://www.w3.org/1999/xlink" x="0px" y="0px" viewBox="0 0 48 48" style="fill: rgb(255, 255, 255);" xml:space="preserve" width="96" height="96">
<path style="fill:#FFBA57;" d="M21,1c-2.228,2.016-6.227,7.318-7,11c-1.862,2.417-1.002,4.469-0.004,6.477&#10;&#9;c1.066,1.82,0.806,3.269,1.276,5.523c0.397,1.836,1.62,4.537,2.286,6.33c1.49,4.003,2.952,8.587,1.887,10.482&#10;&#9;c-1.121,2.012-1.892,1.654-3.77,2.459c-1.967,0.85-3.213,1.213-3.945,1.35c-1.91,0.355-1.725,0.531-1.725,0.855&#10;&#9;c0,0.855,0.786,1.488,1.656,1.488c0.493,0,1.057-0.137,1.433-0.359C13.622,46.965,14.198,47,14.84,47&#10;&#9;c5.349,0,4.329-0.496,6.339-0.496c0.819,0,2.093,0.496,4.02,0.496C27.123,47,28,45.619,28,44.443c0-2.106-1.918-3.051-2.779-9.08&#10;&#9;C24.319,29.065,26,30.664,26,23c0-4.383-3.153-6.25-3-7c0.167-0.731,1.581-2.191,3.188-2.953C28.054,12.156,35.851,7.107,38,1H21z"/>
<path style="fill:#F9A825;" d="M19,16c3.285-1.094,4,0,4,0c0.167-0.731,1.581-2.191,3.188-2.953c0.24-0.113,0.589-0.305,1.009-0.551&#10;&#9;C25.803,13.064,23.723,13.723,23,13c-1.098-1.094,6-11,6-11S20.098,9.43,19,16z"/>
<path style="fill:#F9A825;" d="M23,30c1.479,0,2.165-0.949,2.646-2.281c0.093-0.512,0.175-1.107,0.235-1.816&#10;&#9;C25.685,26.545,25.354,27,24,27c-2.191,0-5-4.809-5-7c-1.094,6.574,4,17,4,17S21.902,31.094,23,30z"/>
</svg>