<?xml version="1.0" encoding="utf-8"?>
<!-- Generator: Adobe Illustrator 21.1.0, SVG Export Plug-In . SVG Version: 6.00 Build 0)  -->
<svg version="1.1" id="Layer_1" xmlns="http://www.w3.org/2000/svg" xmlns:xlink="http://www.w3.org/1999/xlink" x="0px" y="0px"
	 viewBox="0 0 240.4 113.8" style="enable-background:new 0 0 240.4 113.8;" xml:space="preserve">
<style type="text/css">
	.st0{fill:#FF754C;}
	.st1{fill:#FFB74D;}
	.st2{fill:none;stroke:#BA68C8;stroke-width:16;stroke-linecap:round;stroke-miterlimit:10;}
	.st3{fill:none;stroke:#FFB74D;stroke-width:8;stroke-linecap:round;stroke-linejoin:round;stroke-miterlimit:10;}
	.st4{fill:#AB47BC;}
	.st5{fill:#5EC08F;}
	.st6{fill:#2196F3;}
	.st7{fill:#F44336;}
	.st8{fill:#1565C0;}
	.st9{fill:#0D47A1;}
	.st10{fill:#BA68C8;}
	.st11{fill:#FF66A1;}
</style>
<rect x="11" y="93.8" class="st0" width="88" height="4"/>
<path class="st1" d="M25,35.8c4.4,0,8,3.6,8,8c0,4.4-3.6,8-8,8s-8-3.6-8-8C17,39.3,20.6,35.8,25,35.8"/>
<line class="st2" x1="33" y1="61.8" x2="49" y2="85.8"/>
<polyline class="st3" points="33,57.8 49,53.8 61,43.8 "/>
<g>
	<path class="st4" d="M29,58C29,57.9,29,57.9,29,58C29,57.9,29,57.9,29,58z"/>
	<path class="st4" d="M41.3,59.8L34,61.6c-0.3,0.1-0.7,0.1-1,0.1c-1.8,0-3.4-1.2-3.9-3C29.1,58.5,29,58.2,29,58
		c0.1,8.5,5.3,7.7,5.9,7.6l8.7-2.2L41.3,59.8z"/>
</g>
<path class="st5" d="M88.4,60.3c-1.3-2.4-4.4-3.3-6.8-1.9l-17.5,9c-0.4,0.2-0.8,0.5-1.1,0.8l-10.7,8.1l-12.5,10l2.6,3.9
	c1.5,2.3,4.1,3.6,6.7,3.6c1.5,0,3.1-0.4,4.4-1.3c0.2-0.1,0.3-0.2,0.4-0.4c0.3-0.2,0.6-0.4,0.9-0.7l14.8-15.6l16.9-8.6
	C88.8,65.8,89.7,62.8,88.4,60.3z"/>
<path class="st6" d="M221,79.8l-20.4-1.1l6.5-6.9h10.3c2.2,0,4-1.8,4-4s-1.8-4-4-4h-13.7l-10.8,10h-24c-3.3,0-6,2.7-6,6v2
	c0,3.3,2.7,6,6,6h16h4h32c2.2,0,4-1.8,4-4S223.2,79.8,221,79.8z"/>
<g>
	<path class="st7" d="M229,97.8v-2c0-3.3-2.7-6-6-6h-70c-3.3,0-6,2.7-6,6v2H229z"/>
	<path class="st7" d="M161,97.8v-8c0-2.2-1.8-4-4-4h-8c-2.2,0-4,1.8-4,4v8H161z"/>
</g>
<g>
	<path class="st1" d="M159,76.8c0-3.9-3.1-7-7-7s-7,3.1-7,7c0,3.9,3.1,7,7,7S159,80.6,159,76.8"/>
	<path class="st1" d="M199,30.8c0-3.9-3.1-7-7-7s-7,3.1-7,7c0,3.9,3.1,7,7,7S199,34.6,199,30.8"/>
</g>
<path class="st8" d="M193,77.8c0,0-8,0-23,4h23c1.7,0,3,1.3,3,3s-1.3,3-3,3h6.3c0.4-0.9,0.7-1.9,0.7-3C200,80.9,196.9,77.8,193,77.8
	z"/>
<g>
	<path class="st8" d="M203,71.8c-0.4,0-0.7,0-1.1-0.2L185.8,67l-4.6-16.1c-0.6-2.1,0.6-4.3,2.7-4.9c2.1-0.6,4.3,0.6,4.9,2.7
		l3.4,11.9l11.9,3.4c2.1,0.6,3.4,2.8,2.7,4.9C206.3,70.6,204.7,71.8,203,71.8z"/>
	<g>
		<path class="st8" d="M200.6,78.6l0.3,0c0-0.1,0-0.2,0-0.4L200.6,78.6z"/>
		<path class="st8" d="M193,73.8l8-7.4V56.1l7,7.7h9.5h1.4l-17.3-19c-1.2-1.3-2.5-3-8.5-3h-4c-4.4,0-8,3.6-8,8v24H193z"/>
	</g>
</g>
<g>
	<polygon class="st9" points="189,47.8 192.2,60.5 201,63 201,58.9 195.5,57.3 	"/>
	<polygon class="st9" points="193,73.8 196.9,70.2 185.8,67 181,51.2 181,73.8 	"/>
</g>
<path class="st10" d="M116.4,97.8c-1.6,0-3.1-1-3.7-2.5c-4.2-10.6-4.3-36.4-4.3-37.5c0-2.2,1.8-4,4-4s8-0.2,8,2
	c0,3.6-4.6,14.6-2.2,28.4c0.5,3.3,1.2,6.1,2,8.1c0.8,2.1-0.2,4.4-2.2,5.2C117.4,97.7,116.9,97.8,116.4,97.8z"/>
<path class="st1" d="M118.4,17.8c4.4,0,8,3.6,8,8c0,4.4-3.6,8-8,8s-8-3.6-8-8C110.4,21.3,114,17.8,118.4,17.8"/>
<path class="st10" d="M124.4,79.8c-1.2,0-2.3-0.5-3.1-1.5c-1.4-1.7-1.1-4.2,0.6-5.6l6.2-5l-9.7-5.9c-1.7-1.4-2.5-6.9-1-8.6
	c1.4-1.7,5.4-2.8,7-1.4l12.6,13c0.9,0.8,1.4,1.9,1.4,3.1c0,1.2-0.6,2.3-1.5,3.1l-10,8C126.1,79.5,125.3,79.8,124.4,79.8z"/>
<path class="st1" d="M114.4,45.8h-6l-10-16.4c-0.5-0.9-0.5-1.9-0.1-2.8l8.4-15.1c0.7-1.5,2.5-2.1,4-1.3c1.5,0.7,2.1,2.5,1.3,4
	l-7.7,13.7l10,12V45.8z"/>
<path class="st1" d="M122.4,45.8h6l10-16.4c0.5-0.9,0.5-1.9,0.1-2.8l-8.1-15.3c-0.7-1.5-2.5-2.1-4-1.3c-1.5,0.7-2.1,2.5-1.3,4
	l7.4,13.9l-10,12V45.8z"/>
<path class="st11" d="M128.4,55.8l-20,4v-14l0,0c2.2,0,4-1.8,4-4v-4h12v4c0,2.2,1.8,4,4,4l0,0V55.8z"/>
</svg>
