<svg version="1.1" xmlns="http://www.w3.org/2000/svg" xmlns:xlink="http://www.w3.org/1999/xlink" x="0px" y="0px" width="96" height="96" viewBox="0 0 48 48" enable-background="new 0 0 48 48" xml:space="preserve" style="fill: rgb(255, 255, 255);">
<path fill="#2196F3" d="M41,34l-10.193-0.566L34.039,30h5.172c1.104,0,2-0.896,2-2s-0.896-2-2-2h-6.828l-5.386,5H15&#10;&#9;c-1.657,0-3,1.344-3,3v1c0,1.656,1.343,3,3,3h8h2h16c1.104,0,2-0.896,2-2S42.104,34,41,34z"/>
<g>
	<path fill="#F44336" d="M45,43v-1c0-1.656-1.344-3-3-3H7c-1.657,0-3,1.344-3,3v1H45z"/>
	<path fill="#F44336" d="M11,43v-4c0-1.104-0.896-2-2-2H5c-1.104,0-2,0.896-2,2v4H11z"/>
</g>
<g>
	<path fill="#FFB74D" d="M10,32.5c0-1.932-1.57-3.5-3.5-3.5S3,30.568,3,32.5C3,34.43,4.57,36,6.5,36S10,34.43,10,32.5"/>
	<path fill="#FFB74D" d="M30,9.5C30,7.568,28.43,6,26.5,6S23,7.568,23,9.5c0,1.93,1.57,3.5,3.5,3.5S30,11.43,30,9.5"/>
</g>
<path fill="#1565C0" d="M27,33c0,0-4,0-11.5,2H27c0.828,0,1.5,0.672,1.5,1.5S27.828,38,27,38h3.148&#10;&#9;c0.219-0.457,0.352-0.961,0.352-1.5C30.5,34.57,28.93,33,27,33z"/>
<g>
	<path fill="#1565C0" d="M32.001,30.001c-0.183,0-0.366-0.024-0.55-0.078l-8.069-2.305l-2.305-8.068&#10;&#9;&#9;c-0.304-1.063,0.312-2.169,1.374-2.473c1.063-0.311,2.168,0.313,2.472,1.373l1.694,5.932l5.932,1.695&#10;&#9;&#9;c1.063,0.304,1.678,1.409,1.374,2.473C33.672,29.428,32.871,30.001,32.001,30.001z"/>
	<g>
		<path fill="#1565C0" d="M30.807,33.434l0.148,0.008c0.007-0.062,0.016-0.123,0.02-0.186L30.807,33.434z"/>
		<path fill="#1565C0" d="M26.997,31L31,27.284v-5.11L34.479,26h4.732h0.676l-8.631-9.492C30.654,15.847,30,15,27,15h-2&#10;&#9;&#9;&#9;c-2.209,0-4,1.791-4,4v12H26.997z"/>
	</g>
</g>
<g>
	<polygon fill="#0D47A1" points="25,18 26.617,24.382 31,25.635 31,23.555 28.234,22.764 &#9;"/>
	<polygon fill="#0D47A1" points="26.997,31 28.934,29.203 23.382,27.618 21,19.715 21,31 &#9;"/>
</g>
</svg>