<svg version="1.1" xmlns="http://www.w3.org/2000/svg" xmlns:xlink="http://www.w3.org/1999/xlink" x="0px" y="0px" viewBox="0 0 48 48" style="fill: rgb(255, 255, 255);" xml:space="preserve" width="96" height="96">
<rect x="2" y="38" style="fill:#FF754C;" width="44" height="2"/>
<path style="fill:#FFB74D;" d="M9,9c2.209,0,4,1.79,4,4c0,2.208-1.791,4-4,4s-4-1.792-4-4C5,10.79,6.791,9,9,9"/>
<line style="fill:none;stroke:#BA68C8;stroke-width:8;stroke-linecap:round;stroke-miterlimit:10;" x1="13" y1="22" x2="21" y2="34"/>
<polyline style="fill:none;stroke:#FFB74D;stroke-width:4;stroke-linecap:round;stroke-linejoin:round;stroke-miterlimit:10;" points="&#10;&#9;13,20 21,18 27,13 "/>
<g>
	<path style="fill:#AB47BC;" d="M11.004,20.102c0-0.013-0.001-0.025-0.001-0.038C11.003,20.077,11.003,20.089,11.004,20.102z"/>
	<path style="fill:#AB47BC;" d="M17.156,21.023l-3.67,0.918C13.322,21.981,13.159,22,12.998,22c-0.896,0-1.711-0.606-1.938-1.516&#10;&#9;&#9;c-0.032-0.128-0.049-0.256-0.056-0.383c0.043,4.272,2.648,3.858,2.964,3.779l4.366-1.092L17.156,21.023z"/>
</g>
<path style="fill:#5EC08F;" d="M40.685,21.287c-0.671-1.206-2.192-1.643-3.399-0.971l-8.732,4.482&#10;&#9;c-0.203,0.113-0.39,0.254-0.554,0.418l-5.343,4.058l-6.27,5.016l1.285,1.928C18.442,37.375,19.711,38,21.004,38&#10;&#9;c0.762,0,1.533-0.218,2.215-0.672c0.082-0.055,0.146-0.124,0.223-0.183c0.166-0.092,0.322-0.2,0.455-0.332L31.288,29l8.426-4.313&#10;&#9;C40.921,24.016,41.355,22.494,40.685,21.287z"/>
</svg>