<svg version="1.1" xmlns="http://www.w3.org/2000/svg" xmlns:xlink="http://www.w3.org/1999/xlink" x="0px" y="0px" viewBox="0 0 48 48" style="fill: rgb(255, 255, 255);" xml:space="preserve" width="96" height="96">
<path style="fill:#BA68C8;" d="M23.001,46.002c-0.794,0-1.545-0.477-1.858-1.258C19.024,39.447,19,26.547,19,26c0-1.104,0.896-2,2-2&#10;&#9;c1.104,0,4-0.104,4,1c0.001,1.822-2.281,7.313-1.124,14.186c0.274,1.629,0.579,3.066,0.981,4.072c0.41,1.027-0.089,2.19-1.114,2.602&#10;&#9;C23.499,45.955,23.248,46.002,23.001,46.002z"/>
<path style="fill:#FFB74D;" d="M24,6c2.209,0,4,1.791,4,4c0,2.208-1.791,4-4,4s-4-1.792-4-4C20,7.791,21.791,6,24,6"/>
<path style="fill:#BA68C8;" d="M27.001,37c-0.587,0-1.168-0.258-1.563-0.75c-0.69-0.863-0.55-2.121,0.313-2.812l3.113-2.49L24,28&#10;&#9;c-0.839-0.719-1.237-3.461-0.519-4.301C24.201,22.861,26.163,22.281,27,23l6.302,6.482c0.452,0.389,0.708,0.957,0.698,1.553&#10;&#9;c-0.011,0.596-0.285,1.156-0.751,1.527l-5,4C27.881,36.856,27.439,37,27.001,37z"/>
<path style="fill:#FFB74D;" d="M22,20h-3l-5.003-8.21c-0.248-0.435-0.264-0.966-0.039-1.416l4.199-7.546&#10;&#9;c0.37-0.738,1.271-1.039,2.013-0.67c0.741,0.371,1.041,1.271,0.671,2.014L17,11l5,6V20z"/>
<path style="fill:#FFB74D;" d="M26,20h3l5.003-8.209c0.248-0.436,0.264-0.967,0.039-1.416l-4.07-7.644&#10;&#9;c-0.37-0.738-1.271-1.039-2.013-0.67c-0.741,0.371-1.041,1.271-0.671,2.014L31,11l-5,6V20z"/>
<path style="fill:#FF66A1;" d="M29,25l-10,2v-7h0c1.104,0,2-0.896,2-2v-2h6v2c0,1.105,0.895,2,2,2h0V25z"/>
</svg>